Coordinates
version=1
nRows=30
nColumns=38
inDegrees=no

Units are S.I. units (second, meters, Newtons, ...)
If the header above contains a line with 'inDegrees', this indicates whether rotational values are in degrees (yes) or radians (no).

endheader
time	pelvis_tilt	pelvis_list	pelvis_rotation	pelvis_tx	pelvis_ty	pelvis_tz	hip_flexion_r	hip_adduction_r	hip_rotation_r	knee_angle_r	ankle_angle_r	subtalar_angle_r	mtp_angle_r	hip_flexion_l	hip_adduction_l	hip_rotation_l	knee_angle_l	ankle_angle_l	subtalar_angle_l	mtp_angle_l	lumbar_extension	lumbar_bending	lumbar_rotation	arm_flex_r	arm_add_r	arm_rot_r	elbow_flex_r	pro_sup_r	wrist_flex_r	wrist_dev_r	arm_flex_l	arm_add_l	arm_rot_l	elbow_flex_l	pro_sup_l	wrist_flex_l	wrist_dev_l
0.55	-2.75182	1.43382	-1.83663	0.685086	0.369619	0.965025	0.371212	-0.232489	-0.193047	1.06047	-0.000605451	0	0	-0.150648	0.105554	-0.130062	0.198962	0.181834	0	0	-0.171768	-0.0493149	-0.141082	-0.121204	-0.15621	0.0703565	0.466339	1.14657	0	0	-0.070323	-0.296738	0.349012	0.735195	0.824719	0	0
0.56	-2.77449	1.43258	-1.80795	0.683953	0.378212	0.964882	0.37221	-0.229427	-0.202549	1.01768	0.00880117	0	0	-0.168065	0.102005	-0.123082	0.189997	0.185688	0	0	-0.176026	-0.0451712	-0.14626	-0.120978	-0.155615	0.0661204	0.464673	1.14809	0	0	-0.0521164	-0.296614	0.358175	0.729112	0.827061	0	0
0.57	-2.79419	1.43192	-1.78323	0.682953	0.386851	0.964547	0.372977	-0.22605	-0.211892	0.972849	0.0173957	0	0	-0.184348	0.0985743	-0.116937	0.181784	0.189709	0	0	-0.179446	-0.0412638	-0.150486	-0.120682	-0.155054	0.0624646	0.462864	1.14992	0	0	-0.0343965	-0.296031	0.367279	0.722832	0.828111	0	0
0.58	-2.80946	1.43207	-1.76382	0.682045	0.395531	0.963984	0.374161	-0.222941	-0.221496	0.926828	0.0246761	0	0	-0.199131	0.095543	-0.112151	0.174251	0.193988	0	0	-0.181681	-0.0377027	-0.153868	-0.120462	-0.154654	0.0599816	0.461094	1.15015	0	0	-0.0176744	-0.295422	0.376604	0.716907	0.829502	0	0
0.59	-2.83125	1.43153	-1.73837	0.681218	0.40433	0.963382	0.372833	-0.219085	-0.233418	0.87856	0.0301672	0	0	-0.215248	0.0916756	-0.107293	0.165975	0.198195	0	0	-0.184548	-0.0332268	-0.156274	-0.120368	-0.154573	0.0582809	0.459358	1.14999	0	0	-0.000573265	-0.293957	0.386253	0.709946	0.831308	0	0
0.6	-2.85276	1.43113	-1.71412	0.680538	0.413248	0.962631	0.370997	-0.214964	-0.246459	0.829409	0.0349118	0	0	-0.231145	0.0877241	-0.103635	0.157957	0.202855	0	0	-0.187108	-0.0287889	-0.157677	-0.120493	-0.154639	0.0569951	0.458083	1.15021	0	0	0.0158082	-0.29195	0.394663	0.703411	0.833187	0	0
0.61	-2.87539	1.43071	-1.68956	0.679978	0.422266	0.961774	0.368133	-0.209967	-0.259884	0.778696	0.0391553	0	0	-0.246891	0.0834984	-0.101524	0.150418	0.207983	0	0	-0.18954	-0.0241962	-0.158089	-0.120783	-0.154927	0.0561939	0.457066	1.15116	0	0	0.0316558	-0.289222	0.401817	0.696899	0.835411	0	0
0.62	-2.89739	1.4308	-1.66628	0.679559	0.431388	0.960751	0.365158	-0.204345	-0.274014	0.727178	0.0431562	0	0	-0.261751	0.0791583	-0.1006	0.143578	0.213693	0	0	-0.191205	-0.019731	-0.157788	-0.121044	-0.155056	0.0563664	0.455381	1.1514	0	0	0.0463348	-0.286078	0.407286	0.690977	0.837603	0	0
0.63	-2.92123	1.43074	-1.64202	0.679289	0.440646	0.959622	0.361259	-0.197575	-0.28825	0.675021	0.047144	0	0	-0.276636	0.0744963	-0.100877	0.137246	0.219699	0	0	-0.192804	-0.0151678	-0.156642	-0.121324	-0.155092	0.0571138	0.453525	1.15075	0	0	0.0599183	-0.282454	0.411019	0.685738	0.839896	0	0
0.64	-2.95017	1.43037	-1.61372	0.679205	0.450076	0.958424	0.356225	-0.188953	-0.301944	0.622166	0.0503455	0	0	-0.292205	0.0690992	-0.10248	0.130561	0.225991	0	0	-0.194421	-0.0100416	-0.154645	-0.121375	-0.155238	0.0583323	0.451334	1.15003	0	0	0.0722547	-0.278472	0.413242	0.680791	0.843163	0	0
0.65	-2.98	1.43033	-1.58547	0.679323	0.459644	0.957096	0.351424	-0.17919	-0.315113	0.569769	0.0535447	0	0	-0.307115	0.0635328	-0.105198	0.124607	0.23287	0	0	-0.19554	-0.00492998	-0.152106	-0.121288	-0.155335	0.0599136	0.449111	1.14983	0	0	0.0829611	-0.274488	0.413703	0.677187	0.846961	0	0
0.66	-3.01905	1.42949	-1.5488	0.679619	0.469367	0.955771	0.344457	-0.16628	-0.326307	0.515468	0.0561066	0	0	-0.322708	0.0564417	-0.109442	0.119228	0.240402	0	0	-0.197401	0.00154091	-0.148935	-0.121043	-0.155677	0.0618751	0.447106	1.14987	0	0	0.0926249	-0.269713	0.411504	0.673846	0.852422	0	0
0.67	-3.05598	1.42929	-1.51476	0.680078	0.479167	0.954288	0.338192	-0.152495	-0.334465	0.46173	0.0593886	0	0	-0.33679	0.049535	-0.114475	0.1153	0.248176	0	0	-0.198479	0.0075385	-0.145696	-0.120605	-0.155844	0.0643115	0.444975	1.15013	0	0	0.100554	-0.264809	0.405985	0.671988	0.859849	0	0
0.68	-3.09241	1.43012	-1.48154	0.680677	0.489067	0.952626	0.332721	-0.137669	-0.33848	0.408016	0.0634792	0	0	-0.348517	0.0425799	-0.120378	0.113729	0.25666	0	0	-0.198165	0.0131433	-0.142813	-0.119772	-0.155487	0.0659833	0.44209	1.15111	0	0	0.106424	-0.260087	0.397681	0.671562	0.87011	0	0
0.69	-3.13087	1.4322	-1.44665	0.681461	0.499115	0.950791	0.327922	-0.121386	-0.337133	0.353845	0.0673265	0	0	-0.357437	0.0353084	-0.127713	0.114949	0.266088	0	0	-0.196109	0.0185466	-0.140121	-0.118866	-0.154731	0.0669708	0.438795	1.1521	0	0	0.110572	-0.255963	0.389319	0.671988	0.880416	0	0
0.7	3.10852	1.43449	-1.40637	0.682396	0.509338	0.948888	0.321319	-0.102966	-0.328897	0.296735	0.0686975	0	0	-0.364656	0.0271079	-0.136428	0.118885	0.276473	0	0	-0.193353	0.0243319	-0.137836	-0.117954	-0.153446	0.0662635	0.435066	1.15426	0	0	0.11343	-0.252147	0.380674	0.673011	0.891266	0	0
0.71	3.05857	1.4362	-1.3592	0.683406	0.519766	0.946982	0.310929	-0.0824824	-0.312694	0.23483	0.0653496	0	0	-0.371373	0.0176735	-0.145657	0.124691	0.287311	0	0	-0.190588	0.0308454	-0.136455	-0.117113	-0.151551	0.0631946	0.4311	1.15817	0	0	0.11525	-0.248822	0.372565	0.674533	0.901191	0	0
0.72	3.00531	1.43656	-1.30742	0.684396	0.530437	0.945131	0.295306	-0.0608785	-0.287757	0.167673	0.055834	0	0	-0.378974	0.00715087	-0.154112	0.13114	0.297641	0	0	-0.18858	0.0380678	-0.136398	-0.116725	-0.149255	0.0577074	0.427838	1.16308	0	0	0.116169	-0.246007	0.365389	0.676409	0.911365	0	0
0.73	2.95717	1.43591	-1.25913	0.685267	0.541398	0.943297	0.275814	-0.0409702	-0.256726	0.0990886	0.0413289	0	0	-0.387444	-0.00337267	-0.160959	0.138034	0.306911	0	0	-0.187006	0.0449592	-0.138148	-0.117184	-0.147178	0.0532606	0.425792	1.16639	0	0	0.115756	-0.243917	0.359344	0.679191	0.920871	0	0
0.74	2.91974	1.43557	-1.2207	0.686056	0.552578	0.941391	0.258735	-0.0256684	-0.229671	0.0406773	0.0281582	0	0	-0.395176	-0.012579	-0.166796	0.146389	0.315544	0	0	-0.184937	0.0502566	-0.141025	-0.118033	-0.145409	0.0513912	0.423893	1.16679	0	0	0.114213	-0.242604	0.354803	0.682962	0.928356	0	0
0.75	2.895	1.43837	-1.19619	0.686938	0.563696	0.939231	0.257989	-0.0178584	-0.225879	0.0151955	0.0306803	0	0	-0.399464	-0.0182131	-0.171321	0.155811	0.322753	0	0	-0.18048	0.0523847	-0.143013	-0.119174	-0.143323	0.0490265	0.422489	1.16691	0	0	0.112605	-0.242071	0.353295	0.68591	0.930759	0	0
0.76	2.86789	1.43983	-1.16908	0.687833	0.574966	0.937198	0.261482	-0.0110983	-0.230136	0.00648668	0.0373207	0	0	-0.404229	-0.0249893	-0.176615	0.167051	0.329985	0	0	-0.177316	0.0554023	-0.145293	-0.120596	-0.141425	0.0454348	0.422385	1.16709	0	0	0.110469	-0.241652	0.352373	0.688852	0.93328	0	0
0.77	2.83965	1.44006	-1.14011	0.688606	0.586343	0.935297	0.270709	-0.006273	-0.245183	0.0171428	0.0469185	0	0	-0.409184	-0.0328259	-0.181507	0.180191	0.336321	0	0	-0.175367	0.0594657	-0.148184	-0.122337	-0.139826	0.0409298	0.423386	1.16688	0	0	0.10812	-0.240978	0.351983	0.69142	0.936724	0	0
0.78	2.8119	1.4394	-1.11061	0.689216	0.597772	0.933529	0.284837	-0.0036933	-0.270466	0.0444463	0.0563576	0	0	-0.413551	-0.0415972	-0.185228	0.195846	0.341668	0	0	-0.174379	0.0643935	-0.151953	-0.123862	-0.138889	0.0372223	0.42473	1.16624	0	0	0.105614	-0.240031	0.351995	0.693405	0.940998	0	0
0.79	2.78387	1.4384	-1.07985	0.689689	0.609383	0.931869	0.301134	-0.0029962	-0.300364	0.0817532	0.0632619	0	0	-0.416844	-0.0512277	-0.187599	0.213856	0.346947	0	0	-0.17319	0.069925	-0.156738	-0.125558	-0.138725	0.0347884	0.42633	1.16555	0	0	0.10249	-0.238921	0.352583	0.694256	0.945867	0	0
0.8	2.75562	1.43826	-1.04742	0.689972	0.621315	0.930224	0.318613	-0.00480819	-0.33248	0.12517	0.0686986	0	0	-0.418097	-0.0611846	-0.187756	0.234129	0.351694	0	0	-0.170056	0.0754595	-0.163276	-0.128322	-0.138839	0.0318917	0.428538	1.16525	0	0	0.0980412	-0.237387	0.352805	0.693676	0.951476	0	0
0.81	2.7286	1.43736	-1.01383	0.690049	0.633736	0.928731	0.329931	-0.00640962	-0.356759	0.1632	0.0689667	0	0	-0.419879	-0.0723815	-0.185036	0.254732	0.354237	0	0	-0.166126	0.0815907	-0.172248	-0.132207	-0.139072	0.0292654	0.430589	1.16435	0	0	0.0920066	-0.235772	0.35328	0.692375	0.956423	0	0
0.82	2.70206	1.43802	-0.978193	0.689942	0.646693	0.927171	0.33939	-0.00992352	-0.378254	0.200548	0.070072	0	0	-0.419106	-0.0839132	-0.179508	0.277294	0.355124	0	0	-0.158586	0.0868675	-0.183992	-0.137853	-0.139267	0.0266177	0.432506	1.16289	0	0	0.0836559	-0.234274	0.353794	0.690684	0.961989	0	0
0.83	2.67726	1.4394	-0.942539	0.689771	0.660023	0.925616	0.345147	-0.0134994	-0.393444	0.233569	0.0724665	0	0	-0.416323	-0.0957272	-0.171902	0.302047	0.354281	0	0	-0.149024	0.0913034	-0.197522	-0.144812	-0.139369	0.0236452	0.434562	1.16158	0	0	0.0737161	-0.233184	0.354507	0.688858	0.966214	0	0
0.84	2.6502	1.44209	-0.903191	0.689576	0.673507	0.924044	0.350027	-0.0176489	-0.407086	0.263473	0.0738113	0	0	-0.409237	-0.108099	-0.162192	0.331554	0.352212	0	0	-0.13717	0.0948171	-0.212342	-0.152651	-0.139281	0.0202111	0.436531	1.16023	0	0	0.0630225	-0.232329	0.355524	0.685792	0.970235	0	0
